<?xml version="1.0" encoding="UTF-8"?>
<svg width="24px" height="24px" viewBox="0 0 24 24" version="1.1" xmlns="http://www.w3.org/2000/svg" xmlns:xlink="http://www.w3.org/1999/xlink">
    <!-- Generator: Sketch 49 (51002) - http://www.bohemiancoding.com/sketch -->
    <title>Dribbble</title>
    <desc>Created with Sketch.</desc>
    <defs></defs>
    <g id="Social-Icons" stroke="none" stroke-width="1" fill="none" fill-rule="evenodd">
        <g id="dribbble-logo" fill="#000" fill-rule="nonzero">
            <path d="M11.974942,0 C5.3609652,0.000501160093 0,5.36180046 0,11.9759443 C0,18.5889188 5.3609652,23.9508306 11.974942,23.9508306 C18.5889188,23.9508306 23.9501067,18.5889188 23.9508306,11.9759443 C23.9501067,5.36180046 18.5889188,0.000501160093 11.974942,0 Z M19.3124269,6.20915081 C20.4808538,7.69286311 21.2124362,9.53006032 21.3047053,11.5363712 C19.9527981,11.2494292 18.6754524,11.1097726 17.4846404,11.1097726 L17.4846404,11.1094942 L17.4758422,11.1094942 C16.517123,11.1094942 15.6173735,11.196529 14.769355,11.3469327 C14.5632668,10.841819 14.3543387,10.3566404 14.1438515,9.8919536 C16.0324455,9.06359165 17.8451972,7.88408353 19.3124269,6.20915081 Z M11.974942,2.63276102 C14.17871,2.63276102 16.2003898,3.40321114 17.8009838,4.68584687 C16.5761485,6.1522413 14.9594617,7.21425522 13.2129745,7.96415777 C11.9858005,5.59116473 10.8,3.89356845 9.98940139,2.85572158 C10.6310534,2.71333643 11.2933643,2.63276102 11.974942,2.63276102 Z M7.84822274,3.60668213 C8.4967239,4.37267749 9.79511833,6.05752204 11.181884,8.68805568 C8.36152204,9.52761021 5.52150348,9.72484455 3.80313689,9.72434339 C3.75413457,9.72434339 3.7056891,9.72434339 3.65813457,9.72384223 L3.65657541,9.72384223 C3.36718329,9.72384223 3.11832947,9.7192761 2.91057077,9.71292807 C3.58095592,7.03038515 5.41870998,4.80874246 7.84822274,3.60668213 Z M2.63198144,11.9759443 C2.63198144,11.9320093 2.6335406,11.8873503 2.63615777,11.841355 C2.902942,11.8512111 3.24506729,11.8596752 3.65685383,11.8596752 L3.65919258,11.8596752 C5.53726218,11.8474246 8.81635267,11.6905058 12.1394896,10.641355 C12.3206311,11.0374385 12.499935,11.4498376 12.6771787,11.8779954 C10.4579861,12.6202135 8.71016241,13.8026729 7.41739211,14.980232 C6.17284455,16.1138005 5.33200928,17.2365661 4.84070534,17.9860789 C3.46591183,16.3583666 2.63270534,14.26658 2.63198144,11.9759443 Z M11.974942,21.3192947 C9.89574014,21.3192947 7.97935963,20.6316473 6.42470534,19.4778097 C6.75513689,18.9336056 7.46361021,17.8888538 8.59177726,16.8092993 C9.75251972,15.6970023 11.3548399,14.5519629 13.4469049,13.8705522 C14.1579954,15.8638886 14.8014292,18.1425522 15.2915638,20.7075452 C14.259007,21.1007332 13.1433132,21.3192947 11.974942,21.3192947 Z M17.2627935,19.660232 C16.7887517,17.3404733 16.1928167,15.2486868 15.5384687,13.3819211 C16.1452622,13.2948863 16.7822367,13.2457726 17.4545708,13.2457726 L17.4787378,13.2457726 L17.480297,13.2457726 L17.4818561,13.2457726 C18.5962135,13.2457726 19.8207703,13.3842599 21.1487889,13.6860139 C20.689058,16.1564548 19.2581346,18.2841021 17.2627935,19.660232 Z" id="Dribbble"></path>
        </g>
    </g>
</svg>