<?xml version="1.0" encoding="UTF-8"?>
<svg width="24px" height="24px" viewBox="0 0 24 24" version="1.1" xmlns="http://www.w3.org/2000/svg" xmlns:xlink="http://www.w3.org/1999/xlink">
    <!-- Generator: Sketch 49 (51002) - http://www.bohemiancoding.com/sketch -->
    <title>Combined Shape</title>
    <desc>Created with Sketch.</desc>
    <defs></defs>
    <g id="Social-Icons" stroke="none" stroke-width="1" fill="none" fill-rule="evenodd">
        <path d="M12,24 C5.372583,24 0,18.627417 0,12 C0,5.372583 5.372583,0 12,0 C18.627417,0 24,5.372583 24,12 C24,18.627417 18.627417,24 12,24 Z M15.5739997,17.0679996 C14.4579941,17.8960037 13.2220065,18.3099996 11.8659998,18.3099996 C10.1379912,18.3099996 8.66500595,17.6860058 7.4469999,16.4379996 C6.22899384,15.1899934 5.61999995,13.6840085 5.61999995,11.9199998 C5.61999995,10.155991 6.22899384,8.6500061 7.4469999,7.4019999 C8.66500595,6.1539937 10.1379912,5.52999995 11.8659998,5.52999995 C13.5940084,5.52999995 15.0309939,6.06099463 16.1769996,7.12299991 C17.3230053,8.18500519 17.8959996,9.53199168 17.8959996,11.1639998 C17.8959996,12.1120045 17.7430011,12.8649969 17.4369996,13.4229997 C17.1309981,13.9810025 16.7020024,14.2599997 16.1499996,14.2599997 C15.7179975,14.2599997 15.3940007,14.0800015 15.1779997,13.7199997 C15.0579991,13.5039986 14.9979997,13.1320024 14.9979997,12.6039997 L14.9979997,8.22999987 L13.4679997,8.22999987 L13.4679997,8.84199986 C12.9039969,8.31399723 12.202004,8.04999988 11.3619998,8.04999988 C10.389995,8.04999988 9.54100347,8.39799639 8.81499986,9.09399985 C8.08899625,9.79000331 7.72599989,10.7319939 7.72599989,11.9199998 C7.72599989,13.1080057 8.08599628,14.0499962 8.80599986,14.7459997 C9.52600344,15.4420031 10.3599951,15.7899997 11.3079998,15.7899997 C12.4000052,15.7899997 13.2279969,15.4360032 13.7919997,14.7279997 C14.2840022,15.4360032 15.0279947,15.7899997 16.0239996,15.7899997 C17.1400052,15.7899997 17.9949966,15.352004 18.5889996,14.4759997 C19.1830025,13.5999953 19.4799995,12.5080063 19.4799995,11.1999998 C19.4799995,9.80799287 19.138003,8.55700542 18.4539996,7.4469999 C17.7699962,6.33699438 16.8520054,5.48500293 15.6999997,4.89099997 C14.5479939,4.29699702 13.2700067,4 11.8659998,4 C9.69398897,4 7.84000757,4.77399224 6.30399993,6.32199993 C4.7679923,7.87000763 4,9.73598891 4,11.9199998 C4,14.1040106 4.7679923,15.9699919 6.30399993,17.5179996 C7.84000757,19.0660073 9.69398897,19.8399995 11.8659998,19.8399995 C13.5940084,19.8399995 15.1119931,19.3360046 16.4199996,18.3279996 L15.5739997,17.0679996 Z M13.3779997,13.3599997 C12.7779967,13.9600027 12.1720028,14.2599997 11.5599998,14.2599997 C10.9599968,14.2599997 10.441002,14.0590017 10.0029998,13.6569997 C9.56499765,13.2549977 9.34599984,12.6760035 9.34599984,11.9199998 C9.34599984,11.1759961 9.56199768,10.6000018 9.99399982,10.1919998 C10.426002,9.78399779 10.9359969,9.57999983 11.5239998,9.57999983 C12.2680035,9.57999983 12.8859973,9.84999713 13.3779997,10.3899998 L13.3779997,13.3599997 Z" id="Combined-Shape" fill="#000"></path>
    </g>
</svg>