<?xml version="1.0" encoding="UTF-8"?>
<svg width="24px" height="24px" viewBox="0 0 24 24" version="1.1" xmlns="http://www.w3.org/2000/svg" xmlns:xlink="http://www.w3.org/1999/xlink">
    <g id="Social-Icons" stroke="none" stroke-width="1" fill="none" fill-rule="evenodd">
        <g fill="#000" fill-rule="nonzero">
            <path d="M22.9176471,7.29411765 C23.5294118,8.75294118 23.8588235,10.2588235 23.8588235,11.8588235 C23.8588235,13.4588235 23.5294118,14.9647059 22.9176471,16.4235294 C22.3058824,17.8823529 21.4588235,19.1058824 20.4235294,20.1882353 C19.3882353,21.2235294 18.1176471,22.0705882 16.6588235,22.6823529 C15.2,23.2941176 13.6941176,23.6235294 12.0941176,23.6235294 C10.4941176,23.6235294 8.98823529,23.2941176 7.52941176,22.6823529 C6.07058824,22.0705882 4.84705882,21.2235294 3.76470588,20.1882353 C2.72941176,19.1529412 1.88235294,17.8823529 1.27058824,16.4235294 C0.658823529,14.9647059 0.329411765,13.4588235 0.329411765,11.8588235 C0.329411765,10.2588235 0.658823529,8.75294118 1.27058824,7.29411765 C1.88235294,5.83529412 2.72941176,4.61176471 3.76470588,3.52941176 C4.8,2.49411765 6.07058824,1.64705882 7.52941176,1.03529412 C8.98823529,0.423529412 10.4941176,0.0941176471 12.0941176,0.0941176471 C13.6941176,0.0941176471 15.2,0.423529412 16.6588235,1.03529412 C18.1176471,1.64705882 19.3411765,2.49411765 20.4235294,3.52941176 C21.4588235,4.61176471 22.2588235,5.88235294 22.9176471,7.29411765 Z M15.47413,16.4655814 L17.2852384,8.02611891 C17.3735851,7.67629663 17.3294118,7.41392992 17.1527183,7.23901878 C16.9760248,7.06410764 16.7993313,7.06410764 16.534291,7.15156321 L5.88850773,11.2182472 C5.66764086,11.3057028 5.49094736,11.3931583 5.40260061,11.5243417 C5.31425386,11.6555251 5.31425386,11.7429806 5.35842723,11.8304362 C5.40260061,11.9178918 5.53512073,12.0053473 5.75598761,12.0490751 L8.49473683,12.879903 L14.8115294,8.94440239 C14.9882229,8.81321904 15.120743,8.81321904 15.2090898,8.85694682 C15.2532632,8.90067461 15.2532632,8.94440239 15.1649164,9.03185796 L10.0408049,13.6670032 L9.81993807,16.4655814 C9.99663157,16.4655814 10.1733251,16.3781258 10.3941919,16.2032147 L11.7193932,14.9351089 L14.4581424,16.946587 C15.0323963,17.2526815 15.3416099,17.0777704 15.47413,16.4655814 Z" id="Shape"></path>
        </g>
    </g>
</svg>